<?xml version="1.0" encoding="UTF-8"?>
<svg width="30px" height="29px" viewBox="0 0 30 29" version="1.1" xmlns="http://www.w3.org/2000/svg" xmlns:xlink="http://www.w3.org/1999/xlink">
    <!-- Generator: Sketch 41.1 (35376) - http://www.bohemiancoding.com/sketch -->
    <title>notification-bell</title>
    <desc>Created with Sketch.</desc>
    <defs></defs>
    <g id="Page-1" stroke="none" stroke-width="1" fill="none" fill-rule="evenodd">
        <g id="Open-zaak-Curaned" transform="translate(-1268.000000, -19.000000)">
            <g id="nav" transform="translate(125.000000, 8.000000)">
                <g id="notification-bell" transform="translate(1143.000000, 11.000000)">
                    <g id="Capa_1" fill="#949FB3">
                        <g id="Group">
                            <path d="M25.4850582,23.7048464 C22.4105818,22.3130833 22.2936291,16.3391781 22.29136,16.1884444 L22.29136,12.1806634 C22.29136,8.32337908 19.93992,5.00652778 16.5984473,3.59424673 C16.5912618,1.61111111 14.9799236,0 13.0000473,0 C11.0201236,0 9.40883273,1.61120588 9.4016,3.59415196 C6.06026909,5.00643301 3.70878182,8.32328431 3.70878182,12.1805686 L3.70878182,16.1883497 C3.70660727,16.3390833 3.58956,22.3129886 0.514989091,23.7047516 C0.164745455,23.8633513 -0.0277490909,24.2455163 0.0532290909,24.6221373 C0.134112727,24.9988056 0.466392727,25.2678137 0.850767273,25.2678137 L8.64509455,25.2678137 C8.80487636,26.148902 9.22049818,26.9685784 9.85617455,27.6324984 C10.7004655,28.51425 11.817,28.9998578 12.9999055,28.9998578 C14.1829055,28.9998578 15.29944,28.51425 16.1436364,27.6324984 C16.7794073,26.968531 17.1950291,26.1488072 17.3547164,25.2678137 L25.1490436,25.2678137 C25.5334182,25.2678137 25.8656509,24.9988529 25.9466291,24.6221373 C26.0277018,24.2455163 25.8353018,23.8633987 25.4850582,23.7048464 L25.4850582,23.7048464 Z M21.4350618,20.8429918 C21.7582655,21.825201 22.2159127,22.8115801 22.8648727,23.6323938 L3.13512727,23.6323938 C3.78399273,22.8116748 4.24164,21.8253431 4.56484364,20.8429918 L21.4350618,20.8429918 L21.4350618,20.8429918 Z M13.0000473,1.63551471 C13.8956291,1.63551471 14.6528436,2.23873366 14.8897745,3.06096895 C14.2793891,2.93407026 13.6473527,2.86716176 13.0000473,2.86716176 C12.3527418,2.86716176 11.7207055,2.93402288 11.11032,3.06096895 C11.3472982,2.23878105 12.1045127,1.63551471 13.0000473,1.63551471 L13.0000473,1.63551471 Z M5.3404,16.1933725 L5.3404,12.1805212 C5.3404,7.94694771 8.77646545,4.50267647 13.0000473,4.50267647 C17.2236291,4.50267647 20.6596945,7.94694771 20.6596945,12.1805212 L20.6596945,16.2000539 C20.6607818,16.323067 20.67988,17.6158889 21.0049273,19.2073824 L4.99497818,19.2073824 C5.32021455,17.6143725 5.33940727,16.3192761 5.3404,16.1933725 L5.3404,16.1933725 Z M13.0000473,27.3644853 C11.7548364,27.3644853 10.6680836,26.4645376 10.3192582,25.2678611 L15.6807418,25.2678611 C15.3319164,26.4645376 14.2453527,27.3644853 13.0000473,27.3644853 L13.0000473,27.3644853 Z" id="Shape"></path>
                            <path d="M13.0000473,5.65002451 C9.49004727,5.65002451 6.63444364,8.51235294 6.63444364,12.0306879 C6.63444364,12.4823203 6.99972,12.848469 7.45027636,12.848469 C7.90083273,12.848469 8.26610909,12.4823203 8.26610909,12.0306879 C8.26610909,9.41419608 10.3897418,7.28553922 13.0000945,7.28553922 C13.4506509,7.28553922 13.8159273,6.91939052 13.8159273,6.46775817 C13.81588,6.01607843 13.4506036,5.65002451 13.0000473,5.65002451 L13.0000473,5.65002451 Z" id="Shape"></path>
                        </g>
                    </g>
                    <circle id="Oval" fill="#FF9033" cx="24" cy="8" r="6"></circle>
                    <text id="1" font-family="OpenSans-Bold, Open Sans" font-size="9" font-weight="bold" fill="#FFFFFF">
                        <tspan x="21" y="11">1</tspan>
                    </text>
                </g>
            </g>
        </g>
    </g>
</svg>